<?xml version="1.0" encoding="utf-8"?>
<!-- Generator: Adobe Illustrator 16.2.1, SVG Export Plug-In . SVG Version: 6.00 Build 0)  -->
<!DOCTYPE svg PUBLIC "-//W3C//DTD SVG 1.1//EN" "http://www.w3.org/Graphics/SVG/1.1/DTD/svg11.dtd">
<svg version="1.1" id="Layer_1" xmlns="http://www.w3.org/2000/svg" xmlns:xlink="http://www.w3.org/1999/xlink" x="0px" y="0px"
	 width="36px" height="13.237px" viewBox="0 0 36 13.237" enable-background="new 0 0 36 13.237" xml:space="preserve">
<path fill="#D62128" stroke="#FFFFFF" stroke-miterlimit="10" d="M35.404,7.15c0,2.742-2.225,4.967-4.967,4.967H5.562
	c-2.743,0-4.966-2.225-4.966-4.967l0,0c0-2.743,2.223-5.722,4.966-5.722h24.875C33.18,1.428,35.404,4.407,35.404,7.15L35.404,7.15z"
	/>
<g>
	<path fill="#FFFFFF" stroke="#333333" stroke-width="0.25" stroke-miterlimit="10" d="M4.767,3.746H6.36V7.63h2.485v1.269H4.767
		V3.746z"/>
	<path fill="#FFFFFF" stroke="#333333" stroke-width="0.25" stroke-miterlimit="10" d="M9.299,7.043
		c0-0.569,0.192-1.039,0.577-1.408c0.384-0.369,0.903-0.554,1.557-0.554c0.748,0,1.312,0.217,1.695,0.65
		c0.307,0.349,0.46,0.779,0.46,1.29c0,0.575-0.191,1.045-0.571,1.412c-0.38,0.367-0.908,0.55-1.58,0.55
		c-0.601,0-1.085-0.152-1.456-0.457C9.526,8.149,9.299,7.655,9.299,7.043z M10.733,7.04c0,0.333,0.067,0.579,0.202,0.738
		c0.134,0.16,0.304,0.239,0.508,0.239c0.207,0,0.375-0.079,0.508-0.236c0.133-0.157,0.199-0.409,0.199-0.756
		c0-0.323-0.067-0.564-0.2-0.722c-0.134-0.158-0.299-0.237-0.496-0.237c-0.208,0-0.381,0.081-0.517,0.241
		C10.801,6.467,10.733,6.711,10.733,7.04z"/>
	<path fill="#FFFFFF" stroke="#333333" stroke-width="0.25" stroke-miterlimit="10" d="M16.875,5.166h1.339v3.526l0.003,0.166
		c0,0.234-0.05,0.458-0.149,0.669c-0.099,0.212-0.232,0.384-0.397,0.515c-0.166,0.131-0.375,0.227-0.629,0.285
		c-0.254,0.059-0.546,0.088-0.874,0.088c-0.75,0-1.265-0.112-1.545-0.337c-0.28-0.225-0.42-0.526-0.42-0.903
		c0-0.047,0.002-0.11,0.007-0.19l1.389,0.158c0.035,0.129,0.089,0.218,0.162,0.267c0.105,0.073,0.238,0.109,0.397,0.109
		c0.207,0,0.36-0.055,0.462-0.165s0.153-0.302,0.153-0.577V8.21c-0.141,0.167-0.281,0.287-0.422,0.362
		c-0.221,0.118-0.458,0.176-0.713,0.176c-0.5,0-0.903-0.218-1.209-0.654c-0.218-0.309-0.327-0.718-0.327-1.227
		c0-0.581,0.141-1.024,0.422-1.329s0.649-0.457,1.104-0.457c0.291,0,0.53,0.049,0.719,0.147c0.189,0.099,0.365,0.262,0.529,0.489
		V5.166z M15.528,6.977c0,0.269,0.057,0.469,0.172,0.599c0.115,0.13,0.267,0.195,0.454,0.195c0.178,0,0.328-0.067,0.448-0.202
		s0.181-0.338,0.181-0.61s-0.063-0.48-0.19-0.624c-0.126-0.145-0.281-0.216-0.464-0.216c-0.183,0-0.329,0.066-0.438,0.199
		S15.528,6.669,15.528,6.977z"/>
	<path fill="#FFFFFF" stroke="#333333" stroke-width="0.25" stroke-miterlimit="10" d="M18.904,7.043
		c0-0.569,0.192-1.039,0.576-1.408c0.385-0.369,0.904-0.554,1.559-0.554c0.747,0,1.312,0.217,1.693,0.65
		c0.307,0.349,0.461,0.779,0.461,1.29c0,0.575-0.19,1.045-0.571,1.412c-0.38,0.367-0.907,0.55-1.58,0.55
		c-0.601,0-1.085-0.152-1.456-0.457C19.131,8.149,18.904,7.655,18.904,7.043z M20.338,7.04c0,0.333,0.067,0.579,0.202,0.738
		c0.135,0.16,0.305,0.239,0.508,0.239c0.207,0,0.375-0.079,0.508-0.236c0.133-0.157,0.199-0.409,0.199-0.756
		c0-0.323-0.066-0.564-0.201-0.722c-0.133-0.158-0.299-0.237-0.495-0.237c-0.208,0-0.381,0.081-0.517,0.241
		C20.405,6.467,20.338,6.711,20.338,7.04z"/>
	<path fill="#FFFFFF" stroke="#333333" stroke-width="0.25" stroke-miterlimit="10" d="M27.815,8.899h-1.336V8.295
		c-0.199,0.248-0.4,0.425-0.604,0.531c-0.202,0.105-0.451,0.158-0.746,0.158c-0.395,0-0.703-0.118-0.927-0.354
		c-0.224-0.235-0.335-0.598-0.335-1.088V5.166h1.438v2.053c0,0.234,0.043,0.401,0.13,0.5c0.087,0.098,0.208,0.147,0.366,0.147
		c0.171,0,0.311-0.065,0.42-0.197c0.108-0.131,0.163-0.367,0.163-0.707V5.166h1.431V8.899z"/>
	<path fill="#FFFFFF" stroke="#333333" stroke-width="0.25" stroke-miterlimit="10" d="M30.41,3.746v1.42h0.788v1.047H30.41v1.323
		c0,0.159,0.015,0.265,0.046,0.315c0.047,0.08,0.129,0.12,0.246,0.12c0.105,0,0.253-0.03,0.443-0.091l0.105,0.988
		c-0.355,0.078-0.686,0.116-0.992,0.116c-0.355,0-0.619-0.046-0.787-0.137c-0.169-0.091-0.294-0.23-0.375-0.416
		c-0.08-0.187-0.121-0.488-0.121-0.905V6.213h-0.527V5.166h0.527V4.48L30.41,3.746z"/>
</g>
</svg>
