<?xml version="1.0" encoding="utf-8"?>
<!-- Generator: Adobe Illustrator 16.2.1, SVG Export Plug-In . SVG Version: 6.00 Build 0)  -->
<!DOCTYPE svg PUBLIC "-//W3C//DTD SVG 1.1//EN" "http://www.w3.org/Graphics/SVG/1.1/DTD/svg11.dtd">
<svg version="1.1" id="Layer_1" xmlns="http://www.w3.org/2000/svg" xmlns:xlink="http://www.w3.org/1999/xlink" x="0px" y="0px"
	 width="19.061px" height="19.396px" viewBox="-2.579 -2.752 19.061 19.396" enable-background="new -2.579 -2.752 19.061 19.396"
	 xml:space="preserve">
<g>
	<g>
		<path fill="#D62128" stroke="#FFFFFF" stroke-miterlimit="10" d="M10.938,9.254c-1,0-1.25-0.035-1.428,0.144
			c-0.215,0.214-0.18,0.463-0.18,1.467v2.435c0,1.611-0.037,2.326-2.292,2.326c-2.255,0-2.291-0.715-2.291-2.326v-2.435
			c0-1.002,0.071-1.286-0.144-1.465C4.388,9.219,4.139,9.254,3.135,9.254H0.702c-1.611,0-2.327-0.038-2.327-2.292
			c0-2.256,0.716-2.291,2.327-2.291h2.434c1.003,0,1.252,0.035,1.467-0.181c0.179-0.179,0.145-0.427,0.145-1.428V0.628
			c0-1.612,0.036-2.327,2.291-2.327c2.255,0,2.292,0.715,2.292,2.327v2.435c0,1.002,0,1.214,0.18,1.429
			c0.18,0.216,0.428,0.181,1.43,0.181h2.434c1.611,0,2.326,0.035,2.326,2.291c0,2.255-0.715,2.293-2.326,2.293h-2.436V9.254z"/>
	</g>
</g>
</svg>
